<svg width="326" height="125" viewBox="0 0 326 125" fill="none" xmlns="http://www.w3.org/2000/svg">
<path d="M50.4008 3.78548C44.5815 4.51179 32.599 13.1493 21.508 24.7558C17.5983 28.9111 14.7364 34.028 11.3609 38.7549C7.48743 43.2087 0.975208 57.6426 0.660339 62.4707C0.192105 69.6503 3.52181 73.2519 10.1982 72.785C15.592 72.4078 20.8905 69.6701 30.1588 62.4765C36.1209 57.849 36.7388 57.6583 36.032 60.6501C35.2529 63.9478 37.2345 65.8937 40.3135 64.8546C42.5468 64.0729 43.7755 63.0457 45.3656 61.2909C47.8199 59.9592 47.9365 59.2439 48.623 60.7159C49.9498 63.5608 58.9195 62.2902 65.8121 58.2814C72.854 54.1858 73.6534 53.9891 73.8156 56.3085C73.9517 58.256 77.4291 59.7036 79.0944 58.5068C82.5388 56.0312 79.1068 64.2844 74.1941 70.2929C73.5459 71.0856 71.2235 74.3201 69.0334 77.4807C66.8433 80.6412 60.175 88.6666 54.2128 95.3129C48.2505 101.959 42.8697 108.493 42.2552 109.834C41.2473 112.034 41.479 112.166 44.6383 111.169C48.0248 110.1 54.8397 102.716 64.1974 89.9761C67.9286 84.8965 82.2255 73.3483 85.9149 71.0224C86.2167 70.8319 87.9944 69.7893 90.0653 68.0436C92.1361 66.2979 97.4798 62.7124 101.94 60.0758C109.194 55.7885 110.231 55.4802 111.755 57.1399C115.843 61.5904 127.501 59.1681 137.689 51.754C142.571 48.2016 144.396 42.9397 139.596 42.1848C136.058 41.6283 132.93 42.3032 129.811 43.1378C127.313 43.8065 127.54 42.4448 130.398 41.4805C133.173 40.854 135.889 40.5025 138.618 40.3066C139.198 40.2187 140.499 40.2272 142.916 40.3998C152.523 41.0855 163.513 43.2723 168.747 45.5402C174.612 48.0818 176.037 46.974 174.345 41.7976C173.692 39.9725 173.506 39.6149 172.689 37.0653C171.785 34.2416 171.922 26.8424 175.994 22.0196C180.277 16.947 189.538 12.337 203.238 8.46074C222.704 5.29874 244.04 2.32373 262.789 2.91087C264.008 2.96618 268.073 3.14922 269.329 3.15604C271.655 3.55556 272.393 3.6729 279.361 4.44103C290.942 5.71773 310.814 10.2005 316.339 13.8072C318.982 15.5321 319.697 17.0378 320.011 21.5365C320.465 28.0215 318.008 32.613 311.043 38.2991C299.178 47.9855 296.369 49.5534 292.967 51.8403C284.91 57.2566 277.565 63.9006 269.814 68.3431C265.381 70.8555 262.595 72.968 260.233 74.6032C257.871 76.2384 247.553 82.0215 249.127 86.4804C249.948 88.8076 259.223 89.802 268.35 88.7819C295.326 85.7668 298.011 85.7685 305.499 88.803C311.404 91.1958 312.942 92.4465 313.965 95.6907C316.167 102.672 316.109 104.034 313.413 108.672C311.958 111.174 310.784 113.476 310.806 113.788C310.827 114.1 311.684 114.437 312.059 114.28C313.6 113.634 316.946 107.957 317.535 102.686C318.972 89.808 308.423 83.5768 286.502 84.351C280.139 84.5759 274.677 85.0563 274.362 85.4175C273.044 86.9337 252.152 87.5596 252.693 85.2823C253.818 80.5437 257.703 79.0548 259.824 77.6434C260.488 77.2014 265.43 73.8797 271.196 70.5303C276.961 67.1809 281.939 64.1425 282.258 63.7759C295.532 50.0823 323.011 40.3052 325.261 20.5238C325.306 16.8679 319.837 10.5203 308.677 8.09558C305.199 7.21833 301.332 6.49086 298.544 5.606C295.897 4.70273 292.312 3.81734 290.578 3.6395C288.843 3.46175 283.44 2.77105 278.571 2.1024C264.196 0.128139 255.641 0.00109025 237.195 1.48696C216.567 3.14848 204.391 5.02048 199.399 7.29889C198.398 7.75597 194.819 8.9686 191.446 9.99444C185.514 12.6448 176.966 16.206 173.515 20.672C170.053 25.3062 168.869 34.3015 170.247 39.3338C171.15 42.6289 170.265 42.9562 168.34 42.3508C160.682 39.9429 145.063 38.1936 137.97 38.9484C128.022 40.0075 123.614 41.8081 117.598 47.2781C115.033 49.6096 108.596 53.9467 103.292 56.9148C97.9888 59.8829 90.0657 65.0124 85.6833 68.3156C82.2788 70.7763 81.3793 71.1141 75.5188 75.8684C75.1041 76.3346 74.6564 77.0408 73.9137 77.0928C73.171 77.1447 73.4986 75.7856 74.6419 74.0734C82.2054 62.7464 90.3233 51.8908 95.4721 46.2189C98.7647 42.5917 101.406 38.8888 101.343 37.9887C101.152 35.2663 96.5505 39.0072 89.6253 47.5127C83.8763 54.5736 79.977 56.9362 78.1867 54.4475C77.7865 53.8913 78.5407 52.1031 79.8609 50.472C83.8148 45.5871 80.4209 44.7799 74.9974 49.3157C68.4488 54.7924 63.797 57.4934 57.8476 59.2734C53.4385 60.5926 52.6025 60.4912 51.3416 58.4863C50.5457 57.2208 50.2087 55.5857 50.5934 54.8538C51.8804 52.4055 51.4202 44.8629 49.9904 44.9709C47.758 45.1412 42.6142 48.6399 38.6879 52.6616C34.7806 56.6637 24.4111 64.5497 19.4713 67.2777C17.8131 68.1934 13.9367 69.1814 10.857 69.4719C5.35917 69.9903 5.24484 69.9225 4.55274 65.7633C3.91163 61.9103 4.69344 58.3038 7.32904 52.9545C7.85608 51.8848 9.25282 48.9704 10.4331 46.4779C11.6135 43.9854 14.1714 39.9067 16.1159 37.4148C18.2248 34.5704 19.2896 29.4206 26.5921 24.0652C29.8532 20.3944 32.7763 17.373 33.0898 17.3511C33.4034 17.3292 35.6156 15.5301 38.0064 13.3543C42.7733 9.01585 50.7899 4.63753 52.0148 5.70186C50.801 17.4661 49.8566 22.2351 47.5473 25.4607C43.2999 31.3933 36.3043 42.5889 29.0718 43.9226C27.3651 44.0419 30.9724 38.0242 35.9905 32.3841C38.0623 30.0556 38.7598 28.222 38.7598 28.222C40.625 25.714 42.4378 23.6169 43.1588 20.5667C44.366 15.0259 40.7872 18.4915 33.128 30.281C25.3616 42.2355 23.6997 48.0539 28.1402 47.7434C29.5036 47.6481 29.9599 46.7057 30.5314 46.3243C31.2869 45.8201 31.5148 45.6755 32.718 44.9196C33.7789 44.253 37.903 41.7938 41.5013 37.7551C45.7785 34.1763 47.6688 29.6644 49.6744 26.109C51.6295 22.6434 51.7094 22.5465 53.9214 17.364C54.3911 16.2635 55.2352 13.3567 54.9678 9.93825C54.5499 4.59242 54.1798 3.937 51.4818 3.74642C51.1506 3.72226 50.7887 3.73703 50.4007 3.78404L50.4008 3.78548ZM48.3958 48.5451C49.5937 48.7794 45.3837 54.7635 45.3837 54.7635C44.4089 57.0587 44.9563 56.3656 42.4419 59.1871C41.4034 60.3525 40.4942 62.7453 39.3893 61.6428C39.3549 56.3477 43.9616 51.8691 45.3875 50.3741C46.7466 49.2637 47.5973 48.7232 48.0802 48.5794C48.211 48.5418 48.316 48.5298 48.3957 48.5431L48.3958 48.5451ZM136.275 44.2241C136.773 44.1917 137.173 44.2105 137.439 44.2917C140.509 45.2294 139.954 47.9276 136.302 49.8264C134.474 50.7768 130.349 52.8929 127.134 54.5288C120.17 58.0725 115.509 58.6273 114.309 56.054C113.35 53.9972 117.169 50.4418 120.163 49.0501C125.041 46.6116 130.606 44.6383 136.275 44.224L136.275 44.2241ZM311.187 112.944C310.964 113.014 309.317 115.379 309.156 115.626C308.752 116.246 306.079 118.298 303.131 120.463C300.182 122.627 297.782 124.582 297.798 124.809C297.814 125.035 299.27 124.555 301.031 123.742C305.488 121.682 315.029 112.869 313.446 112.038C313.088 111.85 311.41 112.875 311.187 112.944Z" fill="black"/>
</svg>
