<svg width="158" height="176" viewBox="0 0 158 176" fill="none" xmlns="http://www.w3.org/2000/svg">
<path d="M20.332 85.7529H27.8093C31.2962 85.7529 34.2136 85.988 36.2271 88.4007C37.5021 89.9432 37.7042 91.6839 37.7042 92.9252C37.7042 95.7419 36.5321 98.1217 34.6178 99.3593C32.8394 100.498 30.3923 100.498 29.1173 100.498H25.5973V109.914H20.332V85.7529ZM25.4651 96.6454H27.5447C29.2202 96.6454 32.3397 96.6454 32.3397 92.9582C32.3397 89.6751 29.5546 89.6751 28.0812 89.6751H25.4651V96.6454Z" fill="#3548FE"/>
<path d="M39.9854 85.6864H49.274C51.9563 85.6533 54.6716 85.6533 56.619 87.3279C58.1291 88.6353 58.7317 90.4128 58.7317 91.9882C58.7317 96.5127 54.8406 97.585 53.6685 97.9192C57.3245 98.2534 57.5927 100.332 58.0263 103.483C58.3937 106.333 58.5958 107.504 58.7648 108.176C59.033 109.249 59.2351 109.517 59.5033 109.921H53.7677C53.5326 108.58 52.794 102.447 52.4597 101.507C51.9894 100.134 50.7144 100.134 49.8435 100.134H45.2837V109.921H39.9854V85.6864ZM45.1147 96.2776H49.3071C49.9097 96.2776 51.1185 96.2776 51.9563 95.6056C52.3237 95.3375 53.2974 94.5002 53.2974 92.7888C53.2974 91.1473 52.4927 90.376 52.0224 90.0749C51.2177 89.5057 50.2441 89.5057 48.6016 89.5057H45.1147V96.2776Z" fill="#3548FE"/>
<path d="M103.537 62.4862H96.3276V58.4648H115.978V62.4862H108.765V82.6955H103.533V62.4862H103.537Z" fill="#3548FE"/>
<path d="M118.359 58.4627H127.648C130.33 58.4297 133.045 58.4297 134.993 60.1043C136.503 61.4117 137.105 63.1891 137.105 64.7646C137.105 69.289 133.214 70.3614 132.042 70.6956C135.698 71.0298 135.966 73.1084 136.4 76.2593C136.767 79.1091 136.969 80.2806 137.138 80.9527C137.407 82.025 137.609 82.2931 137.877 82.6971H132.141C131.906 81.3566 131.168 75.2237 130.833 74.2835C130.363 72.91 129.088 72.9101 128.217 72.9101H123.657V82.6971H118.359V58.4627ZM123.488 69.054H127.681C128.283 69.054 129.492 69.054 130.33 68.3819C130.697 68.1139 131.671 67.2765 131.671 65.5652C131.671 63.9236 130.866 63.1524 130.396 62.8513C129.591 62.282 128.618 62.282 126.975 62.282H123.488V69.054Z" fill="#3548FE"/>
<path d="M70.1047 94.5631C70.1047 95.6979 70.1047 97.0384 69.9247 98.118C69.774 98.8378 69.5205 100.538 67.7605 102.422C65.9564 104.354 65.0305 103.333 65.0305 101.185C65.0305 100.872 65.0305 101.185 65.0305 101.185V100.307L60.4927 104.78V105.911C60.4927 105.911 60.4927 105.011 60.4927 105.911C60.4927 106.811 60.4743 108.364 61.6281 109.099C64.3691 110.832 70.6081 102.18 71.4458 100.806C74.1612 96.3259 74.7895 93.0501 74.7895 89.7376V75.8301L70.1047 80.6814V94.5631Z" fill="#3548FE"/>
<path d="M89.9744 74.2471C89.8862 77.2034 88.0343 80.3433 86.0943 82.3521C81.5859 87.0161 81.5859 80.9015 81.5859 79.6198C81.5859 75.1762 83.0189 70.1119 86.4507 66.557C89.4563 63.4464 89.9303 65.7013 89.9303 66.7406C89.9303 67.5632 89.9303 67.6073 89.9303 67.6073L94.6554 62.8368L94.6591 61.8489C94.6591 57.5522 91.3449 58.1177 86.6307 62.9984C80.5718 69.2709 76.7505 77.7579 76.7505 84.5923C76.7505 89.932 79.1682 92.9177 86.6013 85.2276C88.5708 83.1894 90.9885 80.2368 92.8991 76.2926C94.6297 72.712 94.751 70.5893 94.8392 69.2122L89.9744 74.2471Z" fill="#3548FE"/>
<path d="M27.6861 9.42065C27.2524 3.95003 22.449 2.58238 19.0465 2.58238C10.4736 2.58238 8.50556 10.1545 8.50556 15.2248C8.50556 19.8949 10.1401 27.3669 18.6128 27.3669C22.7492 27.3669 27.119 25.3988 27.6193 20.6621H23.95C23.85 21.2292 23.6498 22.2632 22.7825 23.1973C21.7484 24.2647 20.3474 24.6316 18.8797 24.6316C13.3757 24.6316 12.0748 19.7281 12.0748 15.1915C12.0748 11.1886 13.1089 5.25097 18.9131 5.25097C23.5497 5.25097 23.9834 8.58671 24.1168 9.42065H27.6861ZM29.7873 27H33.0897V16.1255H37.2927C41.329 16.1255 42.1629 17.1262 42.5632 20.6287C42.7967 22.4634 43.1303 25.3988 43.664 27H47.2332C46.2992 24.3314 46.0657 22.2632 45.7322 19.4279C45.3986 16.4257 44.3645 15.3916 42.0628 14.7912C42.7967 14.591 43.8641 14.2575 44.8982 13.2234C45.9657 12.156 46.5994 10.6549 46.5994 8.95364C46.5994 7.01891 45.7322 5.18426 43.9309 4.05011C42.1629 2.91595 39.6278 2.91595 38.3935 2.91595H29.7873V27ZM33.023 5.71798H38.2935C39.6278 5.71798 43.0969 5.71798 43.0969 9.62079C43.0969 11.6222 41.9294 12.4895 41.4624 12.7564C40.5618 13.2901 38.6604 13.2901 38.2935 13.2901H33.023V5.71798ZM49.7014 27H65.0792V24.0645H53.0372V16.0588H64.2453V13.2567H53.0372V5.75133H64.8123V2.91595H49.7014V27ZM65.8574 27H69.2932L71.895 20.7288H83.0698L85.6717 27H89.3076L79.5672 2.91595H75.998L65.8574 27ZM77.6325 6.21834L82.0691 18.0269H72.9625L77.6325 6.21834ZM97.1961 27V5.75133H105.269V2.91595H85.8212V5.75133H93.8937V27H97.1961ZM106.447 27H109.783V2.91595H106.447V27ZM132.376 2.91595H129.007L121.802 23.4975L114.964 2.91595H111.261L119.834 27H123.503L132.376 2.91595ZM133.577 27H148.955V24.0645H136.913V16.0588H148.121V13.2567H136.913V5.75133H148.688V2.91595H133.577V27Z" fill="#3548FE"/>
<path d="M42.0864 38.71C42.0864 42.8463 41.5527 44.6143 40.3185 46.6824L34.4142 40.8449C35.8152 39.9109 39.0843 37.776 39.0843 34.2401C39.0843 32.9725 38.5505 31.7717 37.6499 30.9377C36.8827 30.2372 35.7152 29.4367 32.6463 29.4367C28.4766 29.4367 26.1749 31.6049 26.1749 34.7405C26.1749 37.6092 27.9429 39.3438 28.9436 40.2778C26.4418 42.1458 23.8733 44.1806 23.8733 47.95C23.8733 51.7861 26.8087 54.8884 31.9791 54.8884C35.2815 54.8884 38.0835 53.5541 40.3185 51.3525L43.4541 54.3213H48.1241L42.3866 48.7506C44.6216 45.7818 45.2887 43.3801 45.3221 38.71H42.0864ZM32.2793 38.6767C30.8116 37.2423 29.7442 35.9414 29.7442 34.5737C29.7442 33.3061 30.9451 32.1053 32.7464 32.1053C34.7478 32.1053 35.515 33.4062 35.515 34.3736C35.515 36.4751 33.1133 38.1096 32.2793 38.6767ZM38.1503 49.351C37.283 50.2517 35.515 52.0863 32.4795 52.0863C30.478 52.0863 27.3758 51.1857 27.3758 47.85C27.3758 46.0487 28.3098 44.4141 31.0785 42.3793L38.1503 49.351ZM66.8467 54.3213V33.0726H74.9192V30.2372H55.4719V33.0726H63.5444V54.3213H66.8467ZM75.6974 54.3213H91.0752V51.3858H79.0331V43.3801H90.2412V40.578H79.0331V33.0726H90.8083V30.2372H75.6974V54.3213ZM112.568 36.7419C112.135 31.2713 107.331 29.9037 103.929 29.9037C95.3559 29.9037 93.3878 37.4758 93.3878 42.5461C93.3878 47.2162 95.0223 54.6882 103.495 54.6882C107.631 54.6882 112.001 52.7201 112.502 47.9834H108.832C108.732 48.5505 108.532 49.5845 107.665 50.5185C106.631 51.586 105.23 51.9529 103.762 51.9529C98.2579 51.9529 96.957 47.0494 96.957 42.5128C96.957 38.5099 97.9911 32.5723 103.795 32.5723C108.432 32.5723 108.866 35.908 108.999 36.7419H112.568ZM114.736 30.2372V54.3213H118.072V43.4468H129.514V54.3213H132.849V30.2372H129.514V40.578H118.072V30.2372H114.736Z" fill="#3548FE"/>
<path d="M22.9359 124.727C22.9359 131.332 25.6045 137.17 33.8104 137.17C42.3832 137.17 44.9517 130.732 44.9517 124.327C44.9517 116.154 40.7487 111.885 34.0772 111.885C31.8423 111.885 28.5399 112.418 26.0381 115.12C23.4029 117.956 22.9359 121.992 22.9359 124.727ZM26.4384 124.527C26.4384 119.59 28.0062 114.687 34.1106 114.687C39.6146 114.687 41.4159 118.823 41.4159 124.294C41.4159 125.928 41.2157 129.731 39.2476 132.133C37.8466 133.801 35.8785 134.334 33.9104 134.334C32.0091 134.334 29.9409 133.834 28.5733 132.133C26.9054 130.064 26.4384 127.162 26.4384 124.527ZM48.098 136.603H51.1336V116.154L63.3757 136.603H67.6455V112.518H64.5766V132.433L52.7347 112.518H48.098V136.603ZM71.9926 136.603H86.5031V133.634H75.295V112.518H71.9926V136.603ZM88.3599 136.603H91.6956V112.518H88.3599V136.603ZM95.876 136.603H98.9115V116.154L111.154 136.603H115.423V112.518H112.355V132.433L100.513 112.518H95.876V136.603ZM119.203 136.603H134.581V133.667H122.539V125.661H133.747V122.859H122.539V115.354H134.314V112.518H119.203V136.603Z" fill="#3548FE"/>
<path d="M2.93545 164.242H6.27119V140.158H2.93545V164.242ZM10.4516 164.242H13.4871V143.794L25.7292 164.242H29.999V140.158H26.9301V160.073L15.0882 140.158H10.4516V164.242ZM33.1119 157.204C33.1119 158.371 33.1453 160.306 34.5129 162.074C36.4143 164.509 40.1503 164.809 41.985 164.809C48.1561 164.809 51.4918 161.574 51.4918 157.304C51.4918 156.303 51.3251 153.968 49.0901 152.5C47.6891 151.566 47.0553 151.433 41.3178 149.965C38.3824 149.265 36.9814 148.531 36.9814 146.396C36.9814 143.994 38.9828 142.493 42.3186 142.493C44.6869 142.493 47.2221 143.16 47.3889 146.162H50.8581C50.7913 145.162 50.7246 143.527 49.3903 142.06C47.4556 139.958 44.2199 139.691 42.6188 139.691C38.0822 139.691 33.4455 141.826 33.4455 146.73C33.4455 148.331 33.9792 150.132 35.9473 151.466C37.1815 152.3 38.816 152.701 42.4853 153.601C45.8544 154.435 48.0227 154.969 48.0227 157.671C48.0227 158.872 47.3889 161.974 42.3853 161.974C36.8479 161.974 36.6478 158.872 36.5811 157.204H33.1119ZM62.9154 164.242V142.994H70.9879V140.158H51.5406V142.994H59.6131V164.242H62.9154ZM72.1664 164.242H75.5021V140.158H72.1664V164.242ZM88.5889 164.242V142.994H96.6614V140.158H77.214V142.994H85.2865V164.242H88.5889ZM98.0067 140.158V154.835C98.0067 158.438 98.6738 159.839 99.4077 160.906C101.643 164.109 105.646 164.743 107.914 164.743C109.648 164.743 113.318 164.376 115.686 161.407C117.621 159.005 117.654 156.303 117.654 155.002V140.158H114.419V154.935C114.419 156.67 114.419 161.774 107.914 161.774C106.246 161.774 103.911 161.407 102.41 159.405C101.909 158.705 101.342 157.637 101.342 155.069V140.158H98.0067ZM130.941 164.242V142.994H139.014V140.158H119.566V142.994H127.639V164.242H130.941ZM139.792 164.242H155.17V161.307H143.127V153.301H154.336V150.499H143.127V142.994H154.903V140.158H139.792V164.242Z" fill="#3548FE"/>
</svg>
