<svg width="21" height="22" viewBox="0 0 21 22" fill="none" xmlns="http://www.w3.org/2000/svg">
<path fill-rule="evenodd" clip-rule="evenodd" d="M6.20566 0.5625C7.31645 0.511364 7.67062 0.5 10.5002 0.5C13.3297 0.5 13.6839 0.512311 14.7937 0.5625C15.9036 0.612689 16.6611 0.789773 17.324 1.0464C18.0182 1.30871 18.6479 1.71875 19.1687 2.24905C19.699 2.76894 20.1081 3.39773 20.3695 4.0928C20.6271 4.75568 20.8032 5.51326 20.8543 6.62121C20.9055 7.7339 20.9168 8.08807 20.9168 10.9167C20.9168 13.7462 20.9045 14.1004 20.8543 15.2112C20.8041 16.3191 20.6271 17.0767 20.3695 17.7396C20.1081 18.4347 19.6983 19.0646 19.1687 19.5852C18.6479 20.1155 18.0182 20.5246 17.324 20.786C16.6611 21.0436 15.9036 21.2197 14.7956 21.2708C13.6839 21.322 13.3297 21.3333 10.5002 21.3333C7.67062 21.3333 7.31645 21.321 6.20566 21.2708C5.0977 21.2206 4.34013 21.0436 3.67725 20.786C2.9821 20.5246 2.35227 20.1148 1.8316 19.5852C1.30166 19.065 0.891559 18.4355 0.629898 17.7405C0.373269 17.0777 0.197132 16.3201 0.145996 15.2121C0.0948597 14.0994 0.0834961 13.7453 0.0834961 10.9167C0.0834961 8.08712 0.0958067 7.73295 0.145996 6.62311C0.196185 5.51326 0.373269 4.75568 0.629898 4.0928C0.891946 3.3978 1.30236 2.76829 1.83255 2.24811C2.35247 1.71828 2.98167 1.30819 3.6763 1.0464C4.33918 0.789773 5.09675 0.613636 6.20471 0.5625H6.20566ZM14.7094 2.4375C13.611 2.38731 13.2814 2.37689 10.5002 2.37689C7.71891 2.37689 7.38937 2.38731 6.29088 2.4375C5.27478 2.4839 4.72365 2.65341 4.35622 2.7964C3.87043 2.9858 3.52289 3.21023 3.15831 3.57481C2.81271 3.91103 2.54674 4.32034 2.3799 4.77273C2.23691 5.14015 2.0674 5.69129 2.021 6.70739C1.97081 7.80587 1.96039 8.13542 1.96039 10.9167C1.96039 13.6979 1.97081 14.0275 2.021 15.1259C2.0674 16.142 2.23691 16.6932 2.3799 17.0606C2.54656 17.5123 2.81266 17.9223 3.15831 18.2585C3.49448 18.6042 3.90452 18.8703 4.35622 19.0369C4.72365 19.1799 5.27478 19.3494 6.29088 19.3958C7.38937 19.446 7.71797 19.4564 10.5002 19.4564C13.2824 19.4564 13.611 19.446 14.7094 19.3958C15.7255 19.3494 16.2767 19.1799 16.6441 19.0369C17.1299 18.8475 17.4774 18.6231 17.842 18.2585C18.1877 17.9223 18.4538 17.5123 18.6204 17.0606C18.7634 16.6932 18.9329 16.142 18.9793 15.1259C19.0295 14.0275 19.0399 13.6979 19.0399 10.9167C19.0399 8.13542 19.0295 7.80587 18.9793 6.70739C18.9329 5.69129 18.7634 5.14015 18.6204 4.77273C18.431 4.28693 18.2066 3.93939 17.842 3.57481C17.5058 3.22923 17.0965 2.96327 16.6441 2.7964C16.2767 2.65341 15.7255 2.4839 14.7094 2.4375ZM9.16967 14.1278C9.91272 14.4372 10.7401 14.4789 11.5105 14.2459C12.2809 14.013 12.9466 13.5198 13.3937 12.8506C13.8409 12.1814 14.0419 11.3777 13.9623 10.5768C13.8828 9.77589 13.5276 9.02744 12.9576 8.45928C12.5941 8.0961 12.1547 7.818 11.6709 7.64503C11.1871 7.47205 10.671 7.40849 10.1597 7.45892C9.64842 7.50935 9.15466 7.67252 8.71399 7.93668C8.27332 8.20084 7.8967 8.55942 7.61125 8.9866C7.32579 9.41379 7.1386 9.89895 7.06315 10.4072C6.9877 10.9154 7.02587 11.434 7.17492 11.9257C7.32396 12.4174 7.58016 12.8699 7.92509 13.2507C8.27001 13.6315 8.69507 13.931 9.16967 14.1278ZM6.71418 7.13068C7.21136 6.6335 7.8016 6.23911 8.4512 5.97004C9.1008 5.70097 9.79704 5.56248 10.5002 5.56248C11.2033 5.56248 11.8995 5.70097 12.5491 5.97004C13.1987 6.23911 13.789 6.6335 14.2861 7.13068C14.7833 7.62786 15.1777 8.21811 15.4468 8.86771C15.7159 9.51731 15.8544 10.2135 15.8544 10.9167C15.8544 11.6198 15.7159 12.316 15.4468 12.9656C15.1777 13.6152 14.7833 14.2055 14.2861 14.7027C13.282 15.7068 11.9202 16.2709 10.5002 16.2709C9.08014 16.2709 7.71828 15.7068 6.71418 14.7027C5.71007 13.6985 5.14597 12.3367 5.14597 10.9167C5.14597 9.49665 5.71007 8.13479 6.71418 7.13068ZM17.0418 6.35985C17.165 6.24363 17.2637 6.10386 17.3319 5.94884C17.4001 5.79381 17.4365 5.62668 17.439 5.45732C17.4415 5.28797 17.4099 5.11984 17.3463 4.96289C17.2826 4.80594 17.1881 4.66336 17.0683 4.5436C16.9485 4.42383 16.806 4.32932 16.649 4.26564C16.4921 4.20197 16.3239 4.17043 16.1546 4.1729C15.9852 4.17537 15.8181 4.21179 15.6631 4.28002C15.508 4.34824 15.3683 4.44687 15.2521 4.57008C15.026 4.80969 14.9023 5.12796 14.9071 5.45732C14.9119 5.78668 15.0449 6.10121 15.2778 6.33413C15.5107 6.56705 15.8252 6.70003 16.1546 6.70483C16.4839 6.70963 16.8022 6.58588 17.0418 6.35985Z" fill="white"/>
</svg>
