<svg width="15" height="15" viewBox="0 0 15 15" fill="none" xmlns="http://www.w3.org/2000/svg">
<path d="M9.49093 0.625622C9.42949 0.628747 9.36928 0.643698 9.31373 0.669622C9.25819 0.695546 9.2084 0.731935 9.16722 0.776712C9.12603 0.821488 9.09425 0.873774 9.07369 0.930584C9.05313 0.987394 9.0442 1.04761 9.0474 1.10781C9.0506 1.168 9.06587 1.22699 9.09234 1.2814C9.11881 1.33581 9.15596 1.38458 9.20168 1.42492C9.24739 1.46526 9.30077 1.49639 9.35876 1.51652C9.41675 1.53665 9.47822 1.54539 9.53966 1.54224H12.8144V13.4583H9.53966C9.47767 13.4575 9.41612 13.4687 9.35859 13.4913C9.30107 13.514 9.24871 13.5476 9.20456 13.5903C9.16041 13.6329 9.12536 13.6837 9.10143 13.7397C9.0775 13.7958 9.06518 13.8559 9.06518 13.9166C9.06518 13.9774 9.0775 14.0375 9.10143 14.0935C9.12536 14.1496 9.16041 14.2004 9.20456 14.243C9.24871 14.2857 9.30107 14.3193 9.35859 14.3419C9.41612 14.3646 9.47767 14.3758 9.53966 14.375H13.2822C13.4063 14.3749 13.5252 14.3267 13.613 14.2407C13.7007 14.1548 13.75 14.0382 13.75 13.9166V1.08393C13.75 0.962385 13.7007 0.845819 13.613 0.759872C13.5252 0.673924 13.4063 0.625634 13.2822 0.625622H9.53966C9.52343 0.624793 9.50716 0.624793 9.49093 0.625622ZM6.39652 3.67625C6.30404 3.68053 6.21493 3.71159 6.14047 3.7655C6.06601 3.81941 6.00956 3.89376 5.97825 3.97912C5.94695 4.06449 5.9422 4.15703 5.96461 4.24504C5.98702 4.33305 6.03558 4.41257 6.10414 4.47353L8.95976 7.04198H1.74273C1.7265 7.04121 1.71023 7.04121 1.694 7.04198C1.44902 7.05443 1.23779 7.28416 1.25055 7.52416C1.26331 7.76414 1.49776 7.97114 1.74273 7.9586H8.95976L6.10414 10.5223C6.05546 10.5621 6.01555 10.6111 5.98682 10.6665C5.95808 10.7218 5.94113 10.7823 5.93699 10.8443C5.93286 10.9063 5.94162 10.9684 5.96274 11.027C5.98387 11.0855 6.01692 11.1393 6.05988 11.1849C6.10285 11.2306 6.15485 11.2672 6.21271 11.2926C6.27056 11.318 6.33308 11.3315 6.39647 11.3325C6.45985 11.3335 6.52277 11.3219 6.58142 11.2983C6.64007 11.2747 6.69322 11.2397 6.73764 11.1954L10.4802 7.83447C10.5275 7.79156 10.5654 7.7395 10.5912 7.68158C10.6171 7.62366 10.6304 7.56112 10.6304 7.4979C10.6304 7.43468 10.6171 7.37214 10.5912 7.31422C10.5654 7.2563 10.5275 7.20424 10.4802 7.16133L6.73764 3.80038C6.69212 3.75842 6.63849 3.72582 6.5799 3.7045C6.52132 3.68318 6.45896 3.67358 6.39652 3.67625Z" fill="white"/>
</svg>
