<svg width="246" height="30" viewBox="0 0 246 30" fill="none" xmlns="http://www.w3.org/2000/svg">
<g clip-path="url(#clip0)">
<path d="M157.955 29.7143H159.881V15.9536H157.955V29.7143Z" fill="#3548FE"/>
<path d="M162.296 29.7143H164.049V18.031L171.119 29.7143H173.585V15.9536H171.813V27.3319L164.974 15.9536H162.296V29.7143Z" fill="#3548FE"/>
<path d="M175.383 25.6928C175.383 26.3599 175.402 27.4653 176.192 28.4755C177.29 29.8668 179.448 30.0383 180.508 30.0383C184.072 30.0383 185.998 28.1896 185.998 25.75C185.998 25.1782 185.902 23.8441 184.611 23.0055C183.802 22.4718 183.436 22.3956 180.122 21.557C178.427 21.1567 177.618 20.7374 177.618 19.5176C177.618 18.1454 178.774 17.2877 180.7 17.2877C182.068 17.2877 183.532 17.6689 183.629 19.3842H185.632C185.594 18.8124 185.555 17.8785 184.785 17.0399C183.667 15.8392 181.799 15.6867 180.874 15.6867C178.254 15.6867 175.576 16.9065 175.576 19.7082C175.576 20.6231 175.884 21.6523 177.021 22.4146C177.734 22.8911 178.678 23.1198 180.797 23.6344C182.743 24.1109 183.995 24.4159 183.995 25.9596C183.995 26.6458 183.629 28.4183 180.739 28.4183C177.541 28.4183 177.425 26.6458 177.387 25.6928H175.383Z" fill="#3548FE"/>
<path d="M192.596 29.7143V17.5736H197.258V15.9536H186.027V17.5736H190.689V29.7143H192.596Z" fill="#3548FE"/>
<path d="M197.939 29.7143H199.865V15.9536H197.939V29.7143Z" fill="#3548FE"/>
<path d="M207.424 29.7143V17.5736H212.086V15.9536H200.854V17.5736H205.516V29.7143H207.424Z" fill="#3548FE"/>
<path d="M212.863 15.9536V24.3396C212.863 26.398 213.248 27.1985 213.672 27.8084C214.963 29.6381 217.275 30.0002 218.585 30.0002C219.587 30.0002 221.706 29.7905 223.074 28.0943C224.191 26.722 224.21 25.1782 224.21 24.4349V15.9536H222.342V24.3968C222.342 25.3879 222.342 28.3039 218.585 28.3039C217.622 28.3039 216.273 28.0943 215.406 26.9507C215.117 26.5505 214.789 25.9406 214.789 24.473V15.9536H212.863Z" fill="#3548FE"/>
<path d="M231.884 29.7143V17.5736H236.546V15.9536H225.315V17.5736H229.977V29.7143H231.884Z" fill="#3548FE"/>
<path d="M236.996 29.7143H245.877V28.0371H238.922V23.4629H245.396V21.8619H238.922V17.5736H245.723V15.9536H236.996V29.7143Z" fill="#3548FE"/>
<path d="M82.1329 16.1478H86.4514C88.4652 16.1478 90.1502 16.282 91.3131 17.6589C92.0495 18.5391 92.1662 19.5325 92.1662 20.2408C92.1662 21.8483 91.4892 23.2063 90.3836 23.9126C89.3565 24.5623 87.9432 24.5623 87.2068 24.5623H85.1739V29.9358H82.1329V16.1478ZM85.0975 22.3638H86.2986C87.2663 22.3638 89.0679 22.3638 89.0679 20.2597C89.0679 18.3861 87.4594 18.3861 86.6084 18.3861H85.0975V22.3638Z" fill="#3548FE"/>
<path d="M93.4839 16.1101H98.8485C100.398 16.0912 101.966 16.0912 103.091 17.0469C103.963 17.793 104.311 18.8073 104.311 19.7064C104.311 22.2883 102.064 22.9003 101.387 23.091C103.498 23.2817 103.653 24.4679 103.903 26.2661C104.116 27.8924 104.232 28.5609 104.33 28.9444C104.485 29.5564 104.602 29.7094 104.756 29.9399H101.444C101.308 29.175 100.882 25.6751 100.688 25.1385C100.417 24.3547 99.6804 24.3547 99.1775 24.3547H96.544V29.9399H93.4839V16.1101ZM96.4463 22.1542H98.8676C99.2157 22.1542 99.9138 22.1542 100.398 21.7707C100.61 21.6177 101.172 21.1399 101.172 20.1632C101.172 19.2264 100.708 18.7863 100.436 18.6145C99.9711 18.2896 99.4088 18.2896 98.4602 18.2896H96.4463V22.1542Z" fill="#3548FE"/>
<path d="M130.188 2.87073H126.024V0.575886H137.373V2.87073H133.208V14.4036H130.186V2.87073H130.188Z" fill="#3548FE"/>
<path d="M138.748 0.574247H144.113C145.662 0.555386 147.23 0.555383 148.355 1.51104C149.227 2.25713 149.575 3.27147 149.575 4.17055C149.575 6.75251 147.328 7.36447 146.651 7.55518C148.762 7.74589 148.917 8.93208 149.168 10.7302C149.38 12.3565 149.497 13.0251 149.594 13.4086C149.749 14.0206 149.866 14.1735 150.021 14.4041H146.708C146.572 13.6391 146.146 10.1392 145.953 9.60272C145.681 8.81891 144.945 8.81892 144.442 8.81892H141.808V14.4041H138.748V0.574247ZM141.711 6.61838H144.132C144.48 6.61838 145.178 6.61838 145.662 6.23486C145.874 6.08187 146.437 5.60404 146.437 4.62742C146.437 3.69062 145.972 3.25052 145.7 3.07866C145.236 2.75382 144.673 2.75382 143.725 2.75382H141.711V6.61838Z" fill="#3548FE"/>
<path d="M110.879 21.1755C110.879 21.8231 110.879 22.588 110.775 23.2042C110.688 23.6149 110.541 24.5853 109.525 25.6604C108.483 26.7627 107.948 26.1801 107.948 24.9541V24.4532L105.327 27.0058V27.6513C105.327 28.1648 105.317 29.0513 105.983 29.4704C107.566 30.4596 111.17 25.5221 111.653 24.7383C113.222 22.1814 113.585 20.312 113.585 18.4217V10.4851L110.879 13.2536V21.1755Z" fill="#3548FE"/>
<path d="M122.355 9.58231C122.304 11.2694 121.235 13.0613 120.114 14.2076C117.51 16.8692 117.51 13.3798 117.51 12.6484C117.51 10.1125 118.338 7.2225 120.32 5.19382C122.056 3.41872 122.33 4.70551 122.33 5.2986C122.33 5.76805 122.33 5.7932 122.33 5.7932L125.059 3.07082L125.061 2.50707C125.061 0.055041 123.147 0.377787 120.424 3.16304C116.925 6.74257 114.718 11.5858 114.718 15.486C114.718 18.5332 116.114 20.2371 120.407 15.8486C121.544 14.6855 122.941 13.0005 124.044 10.7496C125.044 8.70629 125.114 7.49495 125.165 6.70904L122.355 9.58231Z" fill="#3548FE"/>
<path d="M12.0707 4.07867C11.8202 0.952961 9.04597 0.171533 7.0809 0.171533C2.12967 0.171533 0.993004 4.49797 0.993004 7.39497C0.993004 10.0633 1.93701 14.3325 6.83044 14.3325C9.21936 14.3325 11.7431 13.208 12.0321 10.5016H9.91292C9.85513 10.8256 9.73953 11.4165 9.23863 11.9501C8.6414 12.56 7.83225 12.7697 6.98457 12.7697C3.80576 12.7697 3.05441 9.96796 3.05441 7.37591C3.05441 5.08881 3.65164 1.69627 7.00383 1.69627C9.68174 1.69627 9.93219 3.60219 10.0092 4.07867H12.0707Z" fill="#3548FE"/>
<path d="M13.2842 14.1229H15.1915V7.90957H17.619C19.9501 7.90957 20.4317 8.48135 20.6629 10.4826C20.7978 11.5308 20.9904 13.208 21.2987 14.1229H23.3601C22.8206 12.5981 22.6858 11.4165 22.4931 9.79643C22.3005 8.0811 21.7032 7.49027 20.3739 7.1472C20.7978 7.03285 21.4143 6.84225 22.0115 6.25142C22.628 5.64152 22.994 4.78386 22.994 3.81184C22.994 2.70641 22.4931 1.65815 21.4528 1.01014C20.4317 0.362125 18.9675 0.362125 18.2547 0.362125H13.2842V14.1229ZM15.153 1.9631H18.1969C18.9675 1.9631 20.9712 1.9631 20.9712 4.19303C20.9712 5.33658 20.2969 5.83212 20.0271 5.98459C19.507 6.28954 18.4088 6.28954 18.1969 6.28954H15.153V1.9631Z" fill="#3548FE"/>
<path d="M24.7856 14.1229H33.667V12.4457H26.7121V7.87145H33.1853V6.27048H26.7121V1.98216H33.5128V0.362125H24.7856V14.1229Z" fill="#3548FE"/>
<path d="M34.1164 14.1229H36.1007L37.6034 10.5397H44.0574L45.5601 14.1229H47.66L42.0345 0.362125H39.9731L34.1164 14.1229ZM40.9171 2.24899L43.4794 8.99594H38.2199L40.9171 2.24899Z" fill="#3548FE"/>
<path d="M52.216 14.1229V1.98216H56.8782V0.362125H45.6465V1.98216H50.3087V14.1229H52.216Z" fill="#3548FE"/>
<path d="M57.5589 14.1229H59.4854V0.362125H57.5589V14.1229Z" fill="#3548FE"/>
<path d="M72.5343 0.362125H70.5885L66.4271 12.1217L62.4777 0.362125H60.3393L65.2905 14.1229H67.4097L72.5343 0.362125Z" fill="#3548FE"/>
<path d="M73.2277 14.1229H82.1091V12.4457H75.1543V7.87145H81.6275V6.27048H75.1543V1.98216H81.955V0.362125H73.2277V14.1229Z" fill="#3548FE"/>
<path d="M11.3961 20.7946C11.3961 23.1579 11.0879 24.1681 10.3751 25.3498L6.96509 22.0144C7.77424 21.4807 9.66226 20.2609 9.66226 18.2407C9.66226 17.5164 9.35401 16.8303 8.83384 16.3538C8.39073 15.9536 7.71644 15.4961 5.94402 15.4961C3.53583 15.4961 2.20652 16.735 2.20652 18.5266C2.20652 20.1656 3.22759 21.1567 3.80555 21.6904C2.36064 22.7577 0.877197 23.9203 0.877197 26.074C0.877197 28.2658 2.57256 30.0383 5.55871 30.0383C7.46599 30.0383 9.08429 29.2759 10.3751 28.018L12.186 29.7143H14.8832L11.5695 26.5314C12.8603 24.8352 13.2456 23.4629 13.2649 20.7946H11.3961ZM5.7321 20.7755C4.88442 19.956 4.26792 19.2127 4.26792 18.4313C4.26792 17.707 4.96148 17.0209 6.00182 17.0209C7.15774 17.0209 7.60085 17.7642 7.60085 18.3169C7.60085 19.5176 6.21373 20.4515 5.7321 20.7755ZM9.12282 26.8745C8.62192 27.3891 7.60085 28.4373 5.84769 28.4373C4.69176 28.4373 2.90007 27.9227 2.90007 26.0168C2.90007 24.9876 3.43951 24.0537 5.03854 22.8911L9.12282 26.8745Z" fill="#3548FE"/>
<path d="M25.6964 29.7143V17.5736H30.3587V15.9536H19.1269V17.5736H23.7891V29.7143H25.6964Z" fill="#3548FE"/>
<path d="M30.8081 29.7143H39.6895V28.0371H32.7346V23.4629H39.2078V21.8619H32.7346V17.5736H39.5353V15.9536H30.8081V29.7143Z" fill="#3548FE"/>
<path d="M52.1028 19.6701C51.8523 16.5444 49.0781 15.763 47.113 15.763C42.1618 15.763 41.0251 20.0894 41.0251 22.9864C41.0251 25.6547 41.9691 29.924 46.8625 29.924C49.2515 29.924 51.7752 28.7995 52.0642 26.0931H49.945C49.8872 26.4171 49.7716 27.0079 49.2707 27.5416C48.6735 28.1515 47.8643 28.3611 47.0167 28.3611C43.8379 28.3611 43.0865 25.5594 43.0865 22.9674C43.0865 20.6802 43.6837 17.2877 47.0359 17.2877C49.7138 17.2877 49.9643 19.1936 50.0413 19.6701H52.1028Z" fill="#3548FE"/>
<path d="M53.3549 15.9536V29.7143H55.2814V23.501H61.8895V29.7143H63.816V15.9536H61.8895V21.8619H55.2814V15.9536H53.3549Z" fill="#3548FE"/>
<path d="M157.396 7.33779C157.396 11.1115 158.937 14.4469 163.677 14.4469C168.628 14.4469 170.111 10.7685 170.111 7.10908C170.111 2.43958 167.684 0 163.831 0C162.54 0 160.633 0.304948 159.188 1.84874C157.666 3.46878 157.396 5.77494 157.396 7.33779ZM159.419 7.22344C159.419 4.40268 160.324 1.60097 163.85 1.60097C167.029 1.60097 168.069 3.96431 168.069 7.09002C168.069 8.02392 167.954 10.1967 166.817 11.5689C166.008 12.5219 164.871 12.8268 163.734 12.8268C162.636 12.8268 161.442 12.541 160.652 11.5689C159.689 10.3873 159.419 8.72912 159.419 7.22344Z" fill="#3548FE"/>
<path d="M171.928 14.1229H173.682V2.43958L180.752 14.1229H183.218V0.362125H181.446V11.7405L174.606 0.362125H171.928V14.1229Z" fill="#3548FE"/>
<path d="M185.729 14.1229H194.109V12.4266H187.636V0.362125H185.729V14.1229Z" fill="#3548FE"/>
<path d="M195.182 14.1229H197.108V0.362125H195.182V14.1229Z" fill="#3548FE"/>
<path d="M199.522 14.1229H201.276V2.43958L208.346 14.1229H210.812V0.362125H209.04V11.7405L202.2 0.362125H199.522V14.1229Z" fill="#3548FE"/>
<path d="M212.995 14.1229H221.877V12.4457H214.922V7.87145H221.395V6.27048H214.922V1.98216H221.722V0.362125H212.995V14.1229Z" fill="#3548FE"/>
</g>
<defs>
<clipPath id="clip0">
<rect width="246" height="30" fill="white"/>
</clipPath>
</defs>
</svg>
