<svg width="261" height="32" viewBox="0 0 261 32" fill="none" xmlns="http://www.w3.org/2000/svg">
<g clip-path="url(#clip0)">
<path d="M169.336 31.6548H171.388V16.9954H169.336V31.6548Z" fill="#3548FE"/>
<path d="M173.96 31.6548H175.828V19.2086L183.36 31.6548H185.987V16.9954H184.099V29.1168L176.813 16.9954H173.96V31.6548Z" fill="#3548FE"/>
<path d="M187.902 27.3707C187.902 28.0814 187.923 29.259 188.764 30.3351C189.934 31.8173 192.233 32 193.362 32C197.158 32 199.211 30.0305 199.211 27.4316C199.211 26.8225 199.108 25.4012 197.733 24.5079C196.871 23.9394 196.481 23.8581 192.951 22.9648C191.145 22.5384 190.283 22.0917 190.283 20.7923C190.283 19.3304 191.514 18.4167 193.567 18.4167C195.024 18.4167 196.584 18.8228 196.686 20.6501H198.821C198.78 20.041 198.739 19.0461 197.918 18.1528C196.727 16.8736 194.737 16.7112 193.751 16.7112C190.96 16.7112 188.107 18.0106 188.107 20.9953C188.107 21.9699 188.436 23.0663 189.647 23.8784C190.406 24.386 191.412 24.6297 193.669 25.1779C195.742 25.6855 197.076 26.0104 197.076 27.655C197.076 28.3859 196.686 30.2742 193.608 30.2742C190.201 30.2742 190.078 28.3859 190.037 27.3707H187.902Z" fill="#3548FE"/>
<path d="M206.239 31.6548V18.7213H211.206V16.9954H199.241V18.7213H204.207V31.6548H206.239Z" fill="#3548FE"/>
<path d="M211.931 31.6548H213.983V16.9954H211.931V31.6548Z" fill="#3548FE"/>
<path d="M222.035 31.6548V18.7213H227.002V16.9954H215.037V18.7213H220.003V31.6548H222.035Z" fill="#3548FE"/>
<path d="M227.83 16.9954V25.9291C227.83 28.122 228.24 28.9747 228.692 29.6244C230.067 31.5736 232.53 31.9594 233.925 31.9594C234.992 31.9594 237.25 31.7361 238.707 29.929C239.898 28.4671 239.918 26.8225 239.918 26.0307V16.9954H237.927V25.9901C237.927 27.0459 237.927 30.1523 233.925 30.1523C232.899 30.1523 231.462 29.929 230.539 28.7108C230.231 28.2844 229.882 27.6347 229.882 26.0713V16.9954H227.83Z" fill="#3548FE"/>
<path d="M248.093 31.6548V18.7213H253.06V16.9954H241.095V18.7213H246.061V31.6548H248.093Z" fill="#3548FE"/>
<path d="M253.539 31.6548H263V29.8681H255.591V24.9952H262.487V23.2896H255.591V18.7213H262.836V16.9954H253.539V31.6548Z" fill="#3548FE"/>
<path d="M88.5622 17.2024H93.1627C95.3081 17.2024 97.1031 17.3453 98.3419 18.8121C99.1264 19.7498 99.2507 20.8081 99.2507 21.5627C99.2507 23.2751 98.5295 24.7218 97.3517 25.4742C96.2576 26.1663 94.752 26.1663 93.9675 26.1663H91.8018V31.8907H88.5622V17.2024ZM91.7204 23.8243H92.9999C94.0308 23.8243 95.9501 23.8243 95.9501 21.5828C95.9501 19.5868 94.2365 19.5868 93.33 19.5868H91.7204V23.8243Z" fill="#3548FE"/>
<path d="M100.654 17.1622H106.369C108.02 17.1421 109.69 17.1421 110.889 18.1601C111.818 18.9549 112.188 20.0355 112.188 20.9933C112.188 23.7439 109.794 24.3958 109.073 24.599C111.323 24.8022 111.488 26.0658 111.754 27.9814C111.98 29.7139 112.105 30.4261 112.209 30.8347C112.374 31.4866 112.498 31.6496 112.663 31.8952H109.134C108.99 31.0803 108.535 27.3518 108.329 26.7803C108.04 25.9453 107.256 25.9452 106.72 25.9452H103.914V31.8952H100.654V17.1622ZM103.81 23.601H106.39C106.761 23.601 107.504 23.601 108.02 23.1924C108.246 23.0295 108.845 22.5204 108.845 21.48C108.845 20.482 108.35 20.0132 108.06 19.8301C107.565 19.4841 106.966 19.4841 105.956 19.4841H103.81V23.601Z" fill="#3548FE"/>
<path d="M139.755 3.05821H135.32V0.613495H147.41V3.05821H142.972V15.3443H139.753V3.05821H139.755Z" fill="#3548FE"/>
<path d="M148.875 0.611749H154.59C156.24 0.591656 157.911 0.591653 159.109 1.60972C160.038 2.40453 160.409 3.48512 160.409 4.44291C160.409 7.19349 158.015 7.84541 157.294 8.04858C159.543 8.25175 159.708 9.5154 159.975 11.431C160.201 13.1635 160.325 13.8757 160.429 14.2843C160.594 14.9362 160.719 15.0992 160.884 15.3448H157.355C157.21 14.5299 156.756 10.8014 156.55 10.2298C156.261 9.39484 155.476 9.39485 154.94 9.39485H152.135V15.3448H148.875V0.611749ZM152.031 7.0506H154.61C154.981 7.0506 155.725 7.0506 156.24 6.64203C156.466 6.47905 157.065 5.97002 157.065 4.92962C157.065 3.93164 156.57 3.46279 156.281 3.27972C155.786 2.93367 155.187 2.93366 154.176 2.93366H152.031V7.0506Z" fill="#3548FE"/>
<path d="M119.185 22.5584C119.185 23.2482 119.185 24.0632 119.075 24.7195C118.982 25.1571 118.826 26.1908 117.743 27.3362C116.633 28.5105 116.063 27.8898 116.063 26.5838V26.0502L113.271 28.7695V29.4571C113.271 30.0041 113.26 30.9485 113.97 31.395C115.657 32.4488 119.495 27.1888 120.011 26.3538C121.681 23.63 122.068 21.6385 122.068 19.6247V11.1698L119.185 14.1191V22.5584Z" fill="#3548FE"/>
<path d="M131.411 10.2081C131.357 12.0053 130.217 13.9142 129.024 15.1355C126.25 17.9709 126.25 14.2536 126.25 13.4744C126.25 10.7729 127.132 7.69417 129.243 5.533C131.092 3.64198 131.384 5.0128 131.384 5.64463C131.384 6.14474 131.384 6.17153 131.384 6.17153L134.291 3.27137L134.293 2.67079C134.293 0.0586355 132.254 0.402459 129.354 3.3696C125.626 7.1829 123.275 12.3425 123.275 16.4974C123.275 19.7436 124.762 21.5587 129.336 16.8836C130.547 15.6445 132.035 13.8495 133.211 11.4517C134.275 9.27486 134.35 7.98441 134.404 7.14718L131.411 10.2081Z" fill="#3548FE"/>
<path d="M13.9245 4.34503C13.6577 1.01519 10.7022 0.182735 8.60884 0.182735C3.33426 0.182735 2.12337 4.79172 2.12337 7.87791C2.12337 10.7205 3.12903 15.2685 8.34203 15.2685C10.887 15.2685 13.5756 14.0706 13.8834 11.1874H11.6258C11.5642 11.5326 11.4411 12.162 10.9075 12.7305C10.2713 13.3803 9.40926 13.6036 8.50622 13.6036C5.11982 13.6036 4.3194 10.6189 4.3194 7.8576C4.3194 5.42114 4.95563 1.80705 8.52674 1.80705C11.3795 1.80705 11.6463 3.83743 11.7284 4.34503H13.9245Z" fill="#3548FE"/>
<path d="M15.2173 15.0452H17.2491V8.42611H19.8351C22.3185 8.42611 22.8316 9.03523 23.0778 11.1671C23.2215 12.2839 23.4267 14.0706 23.7551 15.0452H25.9511C25.3765 13.4209 25.2328 12.162 25.0276 10.4362C24.8223 8.60885 24.1861 7.97943 22.77 7.61396C23.2215 7.49213 23.8783 7.28909 24.5145 6.65968C25.1713 6.00995 25.5612 5.09628 25.5612 4.06078C25.5612 2.88315 25.0276 1.76644 23.9193 1.07611C22.8316 0.385774 21.2718 0.385774 20.5124 0.385774H15.2173V15.0452ZM17.2081 2.0913H20.4508C21.2718 2.0913 23.4062 2.0913 23.4062 4.46686C23.4062 5.68509 22.6879 6.21299 22.4006 6.37542C21.8464 6.70028 20.6766 6.70028 20.4508 6.70028H17.2081V2.0913Z" fill="#3548FE"/>
<path d="M27.4697 15.0452H36.9311V13.2584H29.5221V8.38551H36.418V6.67998H29.5221V2.1116H36.7669V0.385774H27.4697V15.0452Z" fill="#3548FE"/>
<path d="M37.4099 15.0452H39.5238L41.1247 11.228H48.0001L49.6009 15.0452H51.838L45.8451 0.385774H43.6491L37.4099 15.0452ZM44.6548 2.39586L47.3844 9.58343H41.7814L44.6548 2.39586Z" fill="#3548FE"/>
<path d="M56.6915 15.0452V2.1116H61.6583V0.385774H49.693V2.1116H54.6597V15.0452H56.6915Z" fill="#3548FE"/>
<path d="M62.3833 15.0452H64.4357V0.385774H62.3833V15.0452Z" fill="#3548FE"/>
<path d="M78.3368 0.385774H76.2639L71.8308 12.9133L67.6234 0.385774H65.3453L70.6199 15.0452H72.8775L78.3368 0.385774Z" fill="#3548FE"/>
<path d="M79.0754 15.0452H88.5368V13.2584H81.1278V8.38551H88.0238V6.67998H81.1278V2.1116H88.3727V0.385774H79.0754V15.0452Z" fill="#3548FE"/>
<path d="M13.2059 22.1526C13.2059 24.6703 12.8775 25.7464 12.1182 27.0052L8.48547 23.4521C9.34746 22.8836 11.3588 21.5841 11.3588 19.4319C11.3588 18.6603 11.0304 17.9294 10.4763 17.4218C10.0042 16.9954 9.28589 16.5081 7.39772 16.5081C4.83226 16.5081 3.41613 17.8279 3.41613 19.7365C3.41613 21.4826 4.50388 22.5384 5.11959 23.1069C3.58032 24.2439 2 25.4825 2 27.7768C2 30.1117 3.80608 32 6.98724 32C9.01908 32 10.7431 31.1878 12.1182 29.8478L14.0474 31.6548H16.9207L13.3906 28.2641C14.7657 26.457 15.1762 24.9952 15.1967 22.1526H13.2059ZM7.17196 22.1323C6.26892 21.2592 5.61216 20.4674 5.61216 19.6349C5.61216 18.8634 6.35101 18.1324 7.45929 18.1324C8.6907 18.1324 9.16275 18.9243 9.16275 19.5131C9.16275 20.7923 7.68505 21.7871 7.17196 22.1323ZM10.7841 28.6296C10.2505 29.1778 9.16275 30.2945 7.2951 30.2945C6.06368 30.2945 4.15498 29.7463 4.15498 27.7159C4.15498 26.6195 4.72964 25.6246 6.4331 24.386L10.7841 28.6296Z" fill="#3548FE"/>
<path d="M28.4401 31.6548V18.7213H33.4068V16.9954H21.4415V18.7213H26.4082V31.6548H28.4401Z" fill="#3548FE"/>
<path d="M33.8855 31.6548H43.3469V29.8681H35.9379V24.9952H42.8339V23.2896H35.9379V18.7213H43.1828V16.9954H33.8855V31.6548Z" fill="#3548FE"/>
<path d="M56.5709 20.9547C56.3041 17.6249 53.3487 16.7924 51.2553 16.7924C45.9807 16.7924 44.7698 21.4014 44.7698 24.4876C44.7698 27.3301 45.7755 31.8782 50.9885 31.8782C53.5334 31.8782 56.222 30.6803 56.5299 27.7971H54.2723C54.2107 28.1423 54.0875 28.7717 53.5539 29.3402C52.9177 29.9899 52.0557 30.2133 51.1527 30.2133C47.7663 30.2133 46.9658 27.2286 46.9658 24.4673C46.9658 22.0308 47.6021 18.4167 51.1732 18.4167C54.026 18.4167 54.2928 20.4471 54.3749 20.9547H56.5709Z" fill="#3548FE"/>
<path d="M57.9048 16.9954V31.6548H59.9571V25.0358H66.9967V31.6548H69.0491V16.9954H66.9967V23.2896H59.9571V16.9954H57.9048Z" fill="#3548FE"/>
<path d="M168.741 7.817C168.741 11.8372 170.382 15.3903 175.431 15.3903C180.706 15.3903 182.286 11.4717 182.286 7.57335C182.286 2.5989 179.7 0 175.595 0C174.22 0 172.189 0.324863 170.649 1.96948C169.028 3.69531 168.741 6.15208 168.741 7.817ZM170.896 7.69517C170.896 4.6902 171.86 1.70553 175.616 1.70553C179.002 1.70553 180.111 4.22321 180.111 7.55305C180.111 8.54794 179.988 10.8626 178.777 12.3245C177.915 13.3397 176.704 13.6645 175.493 13.6645C174.323 13.6645 173.051 13.36 172.209 12.3245C171.183 11.0656 170.896 9.29918 170.896 7.69517Z" fill="#3548FE"/>
<path d="M184.222 15.0452H186.09V2.5989L193.622 15.0452H196.249V0.385774H194.361V12.5072L187.075 0.385774H184.222V15.0452Z" fill="#3548FE"/>
<path d="M198.923 15.0452H207.851V13.2381H200.955V0.385774H198.923V15.0452Z" fill="#3548FE"/>
<path d="M208.994 15.0452H211.046V0.385774H208.994V15.0452Z" fill="#3548FE"/>
<path d="M213.618 15.0452H215.486V2.5989L223.018 15.0452H225.645V0.385774H223.757V12.5072L216.471 0.385774H213.618V15.0452Z" fill="#3548FE"/>
<path d="M227.971 15.0452H237.432V13.2584H230.023V8.38551H236.919V6.67998H230.023V2.1116H237.268V0.385774H227.971V15.0452Z" fill="#3548FE"/>
</g>
<defs>
<clipPath id="clip0">
<rect width="261" height="32" fill="white"/>
</clipPath>
</defs>
</svg>
