<svg width="26" height="29" viewBox="0 0 26 29" fill="none" xmlns="http://www.w3.org/2000/svg">
<g clip-path="url(#clip0)">
<path d="M23.1111 3.9834H2.88889C2.12271 3.9834 1.38791 4.31902 0.846136 4.91643C0.304364 5.51384 0 6.3241 0 7.16897L0 14.3365H26V7.16897C26 6.3241 25.6956 5.51384 25.1539 4.91643C24.6121 4.31902 23.8773 3.9834 23.1111 3.9834Z" fill="#005BBB"/>
<path d="M26 21.5025C26 22.3474 25.6956 23.1576 25.1539 23.755C24.6121 24.3524 23.8773 24.6881 23.1111 24.6881H2.88889C2.12271 24.6881 1.38791 24.3524 0.846136 23.755C0.304364 23.1576 0 22.3474 0 21.5025V14.335H26V21.5025Z" fill="#FFD500"/>
</g>
<defs>
<clipPath id="clip0">
<rect width="26" height="28.6701" fill="white"/>
</clipPath>
</defs>
</svg>
