<svg width="23" height="15" viewBox="0 0 23 15" fill="none" xmlns="http://www.w3.org/2000/svg">
<path d="M21.882 2.34315C21.7586 1.88942 21.5168 1.47565 21.1807 1.14324C20.8446 0.810829 20.426 0.571446 19.9668 0.449045C18.2765 9.11154e-08 11.5008 0 11.5008 0C11.5008 0 4.72514 -9.11154e-08 3.03485 0.446656C2.57545 0.56866 2.15664 0.807911 1.82047 1.14038C1.4843 1.47285 1.24261 1.88684 1.11968 2.34076C0.66748 4.01274 0.66748 7.5 0.66748 7.5C0.66748 7.5 0.66748 10.9873 1.11968 12.6568C1.36875 13.5788 2.10386 14.3049 3.03485 14.551C4.72514 15 11.5008 15 11.5008 15C11.5008 15 18.2765 15 19.9668 14.551C20.9002 14.3049 21.6329 13.5788 21.882 12.6568C22.3341 10.9873 22.3341 7.5 22.3341 7.5C22.3341 7.5 22.3341 4.01274 21.882 2.34315ZM9.34866 10.7006V4.29936L14.9588 7.47611L9.34866 10.7006Z" fill="white"/>
</svg>
